{
  "accessors": [
    {
      "bufferView": 2,
      "componentType": 5126,
      "count": 6330,
      "max": [
        2.883073568344116,
        3.098829746246338,
        1.2342535257339478
      ],
      "min": [
        -2.911367893218994,
        -3.0938515663146973,
        0.017394620925188065
      ],
      "type": "VEC3"
    },
    {
      "bufferView": 2,
      "byteOffset": 75960,
      "componentType": 5126,
      "count": 6330,
      "max": [
        0.9987992644309998,
        0.9975340962409973,
        1.0
      ],
      "min": [
        -0.9985888004302979,
        -0.9965243339538574,
        -0.9998501539230347
      ],
      "type": "VEC3"
    },
    {
      "bufferView": 1,
      "componentType": 5126,
      "count": 6330,
      "max": [
        0.9382503032684326,
        0.9999763369560242
      ],
      "min": [
        2.3747901650494896e-05,
        2.3747901650494896e-05
      ],
      "type": "VEC2"
    },
    {
      "bufferView": 0,
      "componentType": 5125,
      "count": 12195,
      "type": "SCALAR"
    },
    {
      "bufferView": 2,
      "byteOffset": 151920,
      "componentType": 5126,
      "count": 1536,
      "max": [
        1.2370507717132568,
        0.17608070373535156,
        0.7129065990447998
      ],
      "min": [
        -1.2897166013717651,
        -3.1049604415893555,
        0.019491340965032578
      ],
      "type": "VEC3"
    },
    {
      "bufferView": 2,
      "byteOffset": 170352,
      "componentType": 5126,
      "count": 1536,
      "max": [
        0.9987992644309998,
        0.8995150327682495,
        1.0
      ],
      "min": [
        -0.9985888004302979,
        -0.9899852871894836,
        -0.9997440576553345
      ],
      "type": "VEC3"
    },
    {
      "bufferView": 1,
      "byteOffset": 50640,
      "componentType": 5126,
      "count": 1536,
      "max": [
        0.9382503032684326,
        0.9999763369560242
      ],
      "min": [
        2.3747901650494896e-05,
        2.3747901650494896e-05
      ],
      "type": "VEC2"
    },
    {
      "bufferView": 0,
      "byteOffset": 48780,
      "componentType": 5125,
      "count": 3048,
      "type": "SCALAR"
    },
    {
      "bufferView": 2,
      "byteOffset": 188784,
      "componentType": 5126,
      "count": 1355,
      "max": [
        1.0358911752700806,
        0.25403785705566406,
        1.0985945463180542
      ],
      "min": [
        -2.2813305854797363,
        -0.4947235584259033,
        -0.11508838832378387
      ],
      "type": "VEC3"
    },
    {
      "bufferView": 2,
      "byteOffset": 205044,
      "componentType": 5126,
      "count": 1355,
      "max": [
        1.0,
        0.999469518661499,
        0.9870886206626892
      ],
      "min": [
        -1.0,
        -0.9990465044975281,
        -0.9983004927635193
      ],
      "type": "VEC3"
    },
    {
      "bufferView": 1,
      "byteOffset": 62928,
      "componentType": 5126,
      "count": 1355,
      "max": [
        0.9776300191879272,
        1.0
      ],
      "min": [
        0.08289625495672226,
        0.0
      ],
      "type": "VEC2"
    },
    {
      "bufferView": 0,
      "byteOffset": 60972,
      "componentType": 5125,
      "count": 5280,
      "type": "SCALAR"
    },
    {
      "bufferView": 2,
      "byteOffset": 221304,
      "componentType": 5126,
      "count": 960,
      "max": [
        2.4913649559020996,
        2.851390838623047,
        2.90708327293396
      ],
      "min": [
        -2.9991612434387207,
        -3.3564813137054443,
        0.00047200918197631836
      ],
      "type": "VEC3"
    },
    {
      "bufferView": 2,
      "byteOffset": 232824,
      "componentType": 5126,
      "count": 960,
      "max": [
        0.9690513014793396,
        0.9983210563659668,
        1.0
      ],
      "min": [
        -0.9926590919494629,
        -0.9989539980888367,
        -1.0
      ],
      "type": "VEC3"
    },
    {
      "bufferView": 1,
      "byteOffset": 73768,
      "componentType": 5126,
      "count": 960,
      "max": [
        0.9840739369392395,
        0.9766759872436523
      ],
      "min": [
        0.01901388168334961,
        0.015973687171936035
      ],
      "type": "VEC2"
    },
    {
      "bufferView": 0,
      "byteOffset": 82092,
      "componentType": 5125,
      "count": 4056,
      "type": "SCALAR"
    }
  ],
  "asset": {
    "extras": {
      "author": "momijiAnko (https://sketchfab.com/momijiAnko)",
      "license": "CC-BY-4.0 (http://creativecommons.org/licenses/by/4.0/)",
      "source": "https://sketchfab.com/3d-models/low-poly-plants-adc7c77172e74cf7bbef1498e126be31",
      "title": "Low Poly Plants"
    },
    "generator": "Sketchfab-13.17.0",
    "version": "2.0"
  },
  "bufferViews": [
    {
      "buffer": 0,
      "byteLength": 98316,
      "name": "floatBufferViews",
      "target": 34963
    },
    {
      "buffer": 0,
      "byteLength": 81448,
      "byteOffset": 98316,
      "byteStride": 8,
      "name": "floatBufferViews",
      "target": 34962
    },
    {
      "buffer": 0,
      "byteLength": 244344,
      "byteOffset": 179764,
      "byteStride": 12,
      "name": "floatBufferViews",
      "target": 34962
    }
  ],
  "buffers": [
    {
      "byteLength": 424108,
      "uri": "scene.bin"
    }
  ],
  "images": [
    {
      "uri": "textures/Shida_baseColor.png"
    },
    {
      "uri": "textures/iwagarami_baseColor.png"
    },
    {
      "uri": "textures/UbayuriLeaf_baseColor.png"
    }
  ],
  "materials": [
    {
      "alphaMode": "BLEND",
      "doubleSided": true,
      "name": "Shida",
      "pbrMetallicRoughness": {
        "baseColorTexture": {
          "index": 0
        },
        "metallicFactor": 0.0,
        "roughnessFactor": 0.821335836452073
      }
    },
    {
      "alphaMode": "BLEND",
      "doubleSided": true,
      "name": "iwagarami",
      "pbrMetallicRoughness": {
        "baseColorTexture": {
          "index": 1
        },
        "metallicFactor": 0.0,
        "roughnessFactor": 0.5165730028891516
      }
    },
    {
      "alphaMode": "BLEND",
      "doubleSided": true,
      "name": "UbayuriLeaf",
      "pbrMetallicRoughness": {
        "baseColorTexture": {
          "index": 2
        },
        "metallicFactor": 0.0,
        "roughnessFactor": 0.5104777462178932
      }
    }
  ],
  "meshes": [
    {
      "name": "ShibaMatome.003_Shida_0",
      "primitives": [
        {
          "attributes": {
            "NORMAL": 1,
            "POSITION": 0,
            "TEXCOORD_0": 2
          },
          "indices": 3,
          "material": 0,
          "mode": 4
        }
      ]
    },
    {
      "name": "ShibaMTanpin_Shida_0",
      "primitives": [
        {
          "attributes": {
            "NORMAL": 5,
            "POSITION": 4,
            "TEXCOORD_0": 6
          },
          "indices": 7,
          "material": 0,
          "mode": 4
        }
      ]
    },
    {
      "name": "iwagaramiMatome.002_iwagarami_0",
      "primitives": [
        {
          "attributes": {
            "NORMAL": 9,
            "POSITION": 8,
            "TEXCOORD_0": 10
          },
          "indices": 11,
          "material": 1,
          "mode": 4
        }
      ]
    },
    {
      "name": "UbayuriMatome.003_UbayuriLeaf_0",
      "primitives": [
        {
          "attributes": {
            "NORMAL": 13,
            "POSITION": 12,
            "TEXCOORD_0": 14
          },
          "indices": 15,
          "material": 2,
          "mode": 4
        }
      ]
    }
  ],
  "nodes": [
    {
      "children": [
        1
      ],
      "matrix": [
        1.0,
        0.0,
        0.0,
        0.0,
        0.0,
        2.220446049250313e-16,
        -1.0,
        0.0,
        0.0,
        1.0,
        2.220446049250313e-16,
        0.0,
        0.0,
        0.0,
        0.0,
        1.0
      ],
      "name": "Sketchfab_model"
    },
    {
      "children": [
        2
      ],
      "matrix": [
        0.009999999776482582,
        0.0,
        0.0,
        0.0,
        0.0,
        0.0,
        0.009999999776482582,
        0.0,
        0.0,
        -0.009999999776482582,
        0.0,
        0.0,
        0.0,
        0.0,
        0.0,
        1.0
      ],
      "name": "8ccd22bb7831493a9f94308c9a37770e.fbx"
    },
    {
      "children": [
        3,
        5,
        7,
        9
      ],
      "name": "RootNode"
    },
    {
      "children": [
        4
      ],
      "matrix": [
        100.0,
        0.0,
        0.0,
        0.0,
        0.0,
        -1.629206793918314e-05,
        -99.99999999999868,
        0.0,
        0.0,
        99.99999999999868,
        -1.629206793918314e-05,
        0.0,
        0.0,
        0.0,
        0.0,
        1.0
      ],
      "name": "ShibaMatome.003"
    },
    {
      "mesh": 0,
      "name": "ShibaMatome.003_Shida_0"
    },
    {
      "children": [
        6
      ],
      "matrix": [
        100.0,
        0.0,
        0.0,
        0.0,
        0.0,
        -1.629206793918314e-05,
        -99.99999999999868,
        0.0,
        0.0,
        99.99999999999868,
        -1.629206793918314e-05,
        0.0,
        322.0694885253906,
        0.0,
        0.0,
        1.0
      ],
      "name": "ShibaMTanpin"
    },
    {
      "mesh": 1,
      "name": "ShibaMTanpin_Shida_0"
    },
    {
      "children": [
        8
      ],
      "matrix": [
        100.0,
        0.0,
        0.0,
        0.0,
        -0.0,
        -1.629206793918314e-05,
        -99.99999999999868,
        0.0,
        0.0,
        99.99999999999868,
        -1.629206793918314e-05,
        0.0,
        -371.60064697265625,
        0.0,
        0.0,
        1.0
      ],
      "name": "iwagaramiMatome.002"
    },
    {
      "mesh": 2,
      "name": "iwagaramiMatome.002_iwagarami_0"
    },
    {
      "children": [
        10
      ],
      "matrix": [
        100.0,
        0.0,
        0.0,
        0.0,
        0.0,
        -1.629206793918314e-05,
        -99.99999999999868,
        0.0,
        0.0,
        99.99999999999868,
        -1.629206793918314e-05,
        0.0,
        688.0040893554688,
        0.0,
        0.0,
        1.0
      ],
      "name": "UbayuriMatome.003"
    },
    {
      "mesh": 3,
      "name": "UbayuriMatome.003_UbayuriLeaf_0"
    }
  ],
  "samplers": [
    {
      "magFilter": 9729,
      "minFilter": 9987,
      "wrapS": 10497,
      "wrapT": 10497
    }
  ],
  "scene": 0,
  "scenes": [
    {
      "name": "Sketchfab_Scene",
      "nodes": [
        0
      ]
    }
  ],
  "textures": [
    {
      "sampler": 0,
      "source": 0
    },
    {
      "sampler": 0,
      "source": 1
    },
    {
      "sampler": 0,
      "source": 2
    }
  ]
}
