# Blender 4.4.3
# www.blender.org
mtllib Car2.mtl
o Car2
v 0.000000 65.072098 10.358171
v 0.000000 65.148819 -49.660908
v -28.713600 64.178413 -49.660908
v -28.713600 64.101692 10.358171
v -36.396778 19.411627 -40.145393
v -34.291649 8.609797 -40.145397
v -34.291649 9.193283 42.739231
v -34.187191 27.087975 -95.911674
v -34.499611 48.214245 -92.386940
v 0.000000 48.214245 -92.386940
v -36.396660 19.411613 42.739235
v -35.937748 45.072021 39.683620
v 0.000000 45.072021 39.683620
v -33.048962 35.697342 89.513557
v -37.377209 27.087969 -62.684967
v -35.937748 48.214241 -71.153542
v -37.291019 26.911629 -45.594444
v 0.000000 35.697342 91.126152
v 0.000000 27.087975 -95.911705
v -35.233231 26.911610 65.821869
v -36.540298 26.911613 48.188313
v -35.976509 27.045076 -98.121323
v -36.515942 19.411602 -68.677170
v -34.846771 24.713148 69.018013
v 0.000000 48.214241 -71.153542
v -37.431511 29.776360 -54.411236
v -33.048962 24.712906 92.468826
v 0.000000 24.712906 94.081383
v -35.969849 29.776340 57.005074
v -35.903008 12.292002 -68.677170
v -32.923801 9.360978 71.918373
v -33.626610 15.083414 94.502098
v -34.878632 24.712906 94.635963
v 0.000000 15.083413 97.078621
v 0.000000 24.712906 97.078629
v 0.000000 16.003725 -98.911705
v -36.063271 16.003725 -98.027222
v 0.000000 27.087975 -98.911697
v -19.859280 19.411627 -40.145393
v -18.389700 8.609797 -40.145397
v -19.859159 19.411613 42.739235
v -20.002800 26.911613 48.188313
v -19.978260 19.411633 -68.677078
v -20.839531 27.088120 -62.684814
v -18.695730 26.911610 65.821869
v -18.309240 24.713148 69.018219
v -20.894009 29.776360 -54.411236
v -20.753521 26.911629 -45.594479
v -19.432350 29.776340 57.005074
v -18.389669 9.193283 42.739231
v -19.365540 12.291702 -68.677078
v -18.309240 9.360949 71.918129
v 28.713570 64.178413 -49.660908
v 28.713600 64.101692 10.358171
v 36.396778 19.411627 -40.145393
v 34.291649 9.193283 42.739231
v 34.291649 8.609797 -40.145397
v 34.187160 27.087975 -95.911705
v 34.499580 48.214245 -92.386971
v 36.396690 19.411613 42.739235
v 35.937748 45.072021 39.683586
v 33.048962 35.697342 89.513557
v 37.377209 27.087969 -62.684994
v 35.937721 48.214241 -71.153542
v 37.290993 26.911629 -45.594479
v 35.233261 26.911610 65.821869
v 36.540298 26.911613 48.188286
v 35.976479 27.045076 -98.121323
v 36.515907 19.411602 -68.677200
v 34.846771 24.713148 69.017982
v 37.431511 29.776360 -54.411266
v 33.048962 24.712906 92.468796
v 35.969879 29.776340 57.005074
v 35.902981 12.292002 -68.677200
v 32.923828 9.360978 71.918373
v 34.878658 24.712906 94.635941
v 33.626640 15.083414 94.502068
v 36.063240 16.003725 -98.027222
v 19.859280 19.411627 -40.145393
v 18.389669 8.609797 -40.145397
v 19.859190 19.411613 42.739235
v 20.002800 26.911613 48.188286
v 19.978260 19.411633 -68.677109
v 20.839531 27.088120 -62.684814
v 18.695761 26.911610 65.821869
v 18.309271 24.713148 69.018219
v 20.894009 29.776360 -54.411266
v 20.753490 26.911629 -45.594479
v 19.432381 29.776340 57.005074
v 18.389700 9.193283 42.739231
v 19.365509 12.291702 -68.677109
v 18.309271 9.360949 71.918129
v 43.476028 38.325928 21.928446
v 43.476028 38.325928 24.328445
v 36.001827 38.325928 26.027317
v 36.001827 38.325928 23.627316
v 43.476028 43.596325 21.928448
v 36.001827 43.596325 23.627317
v 36.001827 43.596325 26.027319
v 43.476028 43.596325 24.328447
v -43.476002 38.325928 21.928474
v -36.001827 38.325928 23.627346
v -36.001827 38.325928 26.027346
v -43.476002 38.325928 24.328445
v -43.476002 43.596325 21.928476
v -43.476002 43.596325 24.328447
v -36.001827 43.596325 26.027348
v -36.001827 43.596325 23.627348
v 27.064110 26.979021 57.091263
v 27.064110 22.823568 66.880920
v 35.746651 22.823568 66.880920
v 35.746620 26.979021 57.091263
v 27.064110 12.962869 70.864891
v 35.746651 12.962869 70.864891
v 27.064110 3.173239 66.709412
v 35.746651 3.173239 66.709412
v 27.064110 -0.810729 56.848740
v 35.746651 -0.810729 56.848740
v 27.064110 3.344723 47.059109
v 35.746651 3.344723 47.059078
v 27.064110 13.205423 43.075142
v 35.746651 13.205423 43.075115
v 27.064140 22.995052 47.230595
v 35.746651 22.995052 47.230595
v 27.064110 26.979071 -54.330387
v 27.064110 22.823587 -44.540726
v 35.746651 22.823587 -44.540726
v 35.746620 26.979071 -54.330387
v 27.064110 12.962916 -40.556755
v 35.746651 12.962916 -40.556755
v 27.064110 3.173287 -44.712212
v 35.746651 3.173287 -44.712212
v 27.064110 -0.810681 -54.572910
v 35.746651 -0.810681 -54.572910
v 27.064110 3.344770 -64.362541
v 35.746651 3.344770 -64.362564
v 27.064110 13.205441 -68.346512
v 35.746651 13.205441 -68.346542
v 27.064140 22.995098 -64.191063
v 35.746651 22.995098 -64.191093
v -27.064110 26.979021 57.091263
v -35.746620 26.979021 57.091263
v -35.746620 22.823568 66.880920
v -27.064110 22.823568 66.880920
v -35.746651 12.962869 70.864891
v -27.064110 12.962869 70.864891
v -35.746651 3.173239 66.709412
v -27.064110 3.173239 66.709412
v -35.746651 -0.810729 56.848740
v -27.064110 -0.810729 56.848740
v -35.746651 3.344723 47.059078
v -27.064110 3.344723 47.059109
v -35.746651 13.205423 43.075115
v -27.064110 13.205423 43.075142
v -35.746651 22.995052 47.230595
v -27.064110 22.995052 47.230595
v -27.064110 26.979071 -54.330387
v -35.746620 26.979071 -54.330387
v -35.746620 22.823587 -44.540726
v -27.064110 22.823587 -44.540726
v -35.746651 12.962916 -40.556755
v -27.064110 12.962916 -40.556755
v -35.746620 3.173287 -44.712238
v -27.064110 3.173287 -44.712212
v -35.746651 -0.810681 -54.572910
v -27.064110 -0.810681 -54.572910
v -35.746651 3.344770 -64.362564
v -27.064110 3.344770 -64.362541
v -35.746651 13.205441 -68.346542
v -27.064110 13.205441 -68.346512
v -35.746651 22.995098 -64.191093
v -27.064110 22.995098 -64.191063
vn -0.0338 0.9994 0.0013
vn -0.9800 -0.1990 0.0004
vn -0.9815 -0.1913 0.0013
vn -0.9810 -0.1941 0.0010
vn -0.0000 0.1646 -0.9864
vn -0.9998 0.0179 -0.0000
vn -0.0077 0.9837 0.1799
vn -0.0000 0.9828 0.1849
vn -0.0009 0.9829 0.1843
vn -0.9950 0.0295 -0.0955
vn -0.9978 0.0656 0.0019
vn -0.0087 0.9838 0.1793
vn -0.9957 0.0610 0.0692
vn -0.9990 0.0127 -0.0438
vn -0.9955 -0.0854 -0.0404
vn -0.9957 -0.0833 -0.0398
vn -0.9959 -0.0811 -0.0393
vn -0.9945 -0.0270 0.1017
vn -0.0000 1.0000 -0.0000
vn -0.0000 0.8028 -0.5963
vn -0.9113 0.4117 0.0005
vn -0.0000 0.8262 0.5634
vn -0.9892 0.1340 0.0593
vn -0.9969 0.0206 0.0764
vn -0.0471 0.2595 0.9646
vn -0.9294 0.3689 0.0105
vn -0.0284 0.8417 0.5392
vn -0.0265 0.7852 -0.6187
vn -0.9977 -0.0035 -0.0676
vn -0.9800 0.1500 0.1306
vn -0.9794 -0.2018 -0.0000
vn -0.9950 -0.0928 0.0356
vn -0.9974 0.0550 0.0467
vn -0.9980 0.0578 -0.0253
vn -0.9955 -0.0857 -0.0405
vn -0.9920 -0.1261 -0.0002
vn -0.0731 -0.0117 0.9973
vn -0.0232 -0.0042 -0.9997
vn -0.9999 0.0079 0.0065
vn -0.0214 0.9998 -0.0021
vn -0.0000 1.0000 -0.0080
vn -0.0007 1.0000 -0.0080
vn -0.0000 -0.0000 -1.0000
vn -0.0000 -0.5878 0.8090
vn -0.0000 -0.6153 0.7883
vn -0.0000 -0.8239 -0.5667
vn -0.0000 -0.9511 -0.3090
vn -0.0000 -0.0000 1.0000
vn -0.0000 -0.5878 -0.8090
vn -0.0000 -0.9511 0.3090
vn -0.0000 -0.1856 -0.9826
vn -0.9934 -0.1149 0.0059
vn -0.9934 -0.1148 0.0050
vn -0.9933 -0.1154 0.0116
vn -0.9980 -0.0534 0.0346
vn -0.9962 -0.0458 0.0738
vn -0.9947 -0.0723 0.0732
vn -0.9956 -0.0938 0.0040
vn -0.9934 -0.1147 0.0041
vn 0.0338 0.9994 0.0013
vn 0.9800 -0.1990 0.0004
vn 0.9810 -0.1941 0.0010
vn 0.9815 -0.1913 0.0013
vn 0.9998 0.0179 -0.0000
vn 0.0077 0.9837 0.1799
vn 0.0009 0.9829 0.1843
vn 0.9950 0.0295 -0.0955
vn 0.9978 0.0656 0.0019
vn 0.0087 0.9838 0.1793
vn 0.9957 0.0610 0.0692
vn 0.9990 0.0127 -0.0437
vn 0.9955 -0.0855 -0.0404
vn 0.9959 -0.0811 -0.0393
vn 0.9957 -0.0833 -0.0398
vn 0.9944 -0.0270 0.1017
vn 0.9113 0.4117 0.0005
vn 0.9892 0.1340 0.0593
vn 0.9969 0.0206 0.0764
vn 0.0471 0.2595 0.9646
vn 0.9294 0.3689 0.0105
vn 0.0284 0.8417 0.5392
vn 0.0265 0.7852 -0.6187
vn 0.9977 -0.0035 -0.0676
vn 0.9800 0.1500 0.1306
vn 0.9794 -0.2018 -0.0000
vn 0.9950 -0.0928 0.0356
vn 0.9974 0.0550 0.0467
vn 0.9980 0.0578 -0.0253
vn 0.9955 -0.0857 -0.0405
vn 0.9920 -0.1261 -0.0002
vn 0.0731 -0.0117 0.9973
vn 0.0232 -0.0042 -0.9997
vn 0.9999 0.0079 0.0065
vn 0.0214 0.9998 -0.0021
vn 0.0007 1.0000 -0.0080
vn 0.9934 -0.1149 0.0058
vn 0.9933 -0.1154 0.0116
vn 0.9934 -0.1148 0.0050
vn 0.9980 -0.0534 0.0346
vn 0.9962 -0.0458 0.0738
vn 0.9947 -0.0723 0.0732
vn 0.9956 -0.0938 0.0040
vn 0.9934 -0.1147 0.0041
vn -0.0016 -0.9921 -0.1256
vn 0.0021 -0.9922 -0.1243
vn -0.0009 -0.9924 -0.1230
vn -0.0000 -0.9919 -0.1271
vn -0.0002 -0.9925 -0.1220
vn -0.0031 -0.9921 -0.1254
vn -0.0000 -0.9751 0.2218
vn -0.0000 -0.9694 0.2456
vn -0.0000 -1.0000 -0.0000
vn -0.2216 -0.0000 -0.9751
vn 0.2216 -0.0000 0.9751
vn 1.0000 -0.0000 -0.0000
vn 0.2216 -0.0000 -0.9751
vn -0.2216 -0.0000 0.9751
vn -1.0000 -0.0000 -0.0000
vn -0.0000 -0.9918 -0.1280
vn -0.0000 -1.0000 0.0070
vn -0.0000 -1.0000 0.0066
vn -0.0000 -1.0000 0.0057
vn -0.0000 0.9205 0.3907
vn -0.0000 0.3746 0.9272
vn -0.0000 -0.3907 0.9205
vn -0.0000 -0.9272 0.3746
vn -0.0000 -0.9205 -0.3907
vn -0.0000 -0.3746 -0.9272
vn -0.0000 0.3907 -0.9205
vn -0.0000 0.9272 -0.3746
vt 0.431746 0.599081
vt 0.744124 0.599079
vt 0.744123 0.441142
vt 0.431745 0.441144
vt 0.701588 0.099390
vt 0.701588 0.043170
vt 0.270203 0.046210
vt 0.742596 0.648377
vt 0.740753 0.758332
vt 0.944334 0.758330
vt 0.270203 0.099393
vt 0.286107 0.232946
vt 0.279118 0.599082
vt 0.279116 0.378200
vt 0.019769 0.404063
vt 0.818898 0.139343
vt 0.862976 0.249296
vt 0.991832 0.139341
vt 0.729949 0.138425
vt 0.011377 0.599084
vt 0.944333 0.648376
vt 0.150066 0.138429
vt 0.026760 0.184157
vt 0.241843 0.138428
vt 0.993123 0.362609
vt 0.841677 0.321815
vt 0.810377 0.362180
vt 0.133430 0.126987
vt 0.855984 0.378196
vt 0.855986 0.599078
vt 0.966498 0.599077
vt 0.438737 0.331988
vt 0.751115 0.332385
vt 0.775837 0.153334
vt 0.011378 0.126987
vt 0.206399 0.106064
vt 0.206398 0.048894
vt 0.011378 0.048895
vt 0.966497 0.395496
vt 0.973488 0.249296
vt 0.195955 0.153339
vt 0.011378 0.106065
vt 0.841595 0.284695
vt 0.162030 0.242254
vt 0.045953 0.271761
vt 0.045256 0.321879
vt 0.177236 0.322135
vt 0.651046 0.358418
vt 0.445216 0.358419
vt 0.445216 0.408537
vt 0.650362 0.408536
vt 0.743550 0.100860
vt 0.956358 0.100858
vt 0.955846 0.043392
vt 0.743550 0.043170
vt 0.992633 0.305143
vt 0.210000 0.635000
vt 0.100000 0.650000
vt 0.100000 0.620000
vt 0.210000 0.620000
vt 0.210000 0.650000
vt 0.100000 0.635000
vt 0.429535 0.968550
vt 0.430837 0.951593
vt 0.416190 0.951593
vt 0.414888 0.968550
vt 0.431640 0.965889
vt 0.431512 0.954115
vt 0.416865 0.954115
vt 0.416993 0.965889
vt 0.431238 0.965159
vt 0.430475 0.953108
vt 0.415828 0.953108
vt 0.416591 0.965159
vt 0.427202 0.974928
vt 0.429897 0.975419
vt 0.429323 0.946006
vt 0.426627 0.945516
vt 0.429802 0.961974
vt 0.429926 0.948133
vt 0.415279 0.948133
vt 0.415155 0.961974
vt 0.425994 0.975851
vt 0.425420 0.946439
vt 0.434810 0.967283
vt 0.420163 0.967283
vt 0.428276 0.970746
vt 0.413629 0.970747
vt 0.419279 0.975379
vt 0.418705 0.945967
vt 0.429850 0.974962
vt 0.415203 0.974962
vt 0.429071 0.968637
vt 0.414424 0.968637
vt 0.436103 0.972205
vt 0.436103 0.948104
vt 0.421456 0.948105
vt 0.421456 0.972205
vt 0.435107 0.949370
vt 0.412968 0.954545
vt 0.413611 0.965648
vt 0.436082 0.966214
vt 0.436161 0.951901
vt 0.413367 0.952164
vt 0.415633 0.976265
vt 0.436161 0.967942
vt 0.420559 0.970514
vt 0.427447 0.975011
vt 0.434334 0.970514
vt 0.433156 0.958323
vt 0.426056 0.955455
vt 0.419879 0.961148
vt 0.438061 0.969030
vt 0.415922 0.974205
vt 0.521995 0.725010
vt 0.474354 0.726178
vt 0.474566 0.764951
vt 0.496412 0.764951
vt 0.547578 0.764951
vt 0.569425 0.764951
vt 0.569637 0.726179
vt 0.477571 0.980518
vt 0.521994 0.983922
vt 0.566416 0.980518
vt 0.497806 0.950683
vt 0.565488 0.950684
vt 0.546181 0.950684
vt 0.478500 0.950683
vt 0.061878 0.645721
vt 0.061878 0.681928
vt 0.025671 0.681928
vt 0.025671 0.645721
vt 0.475000 0.625000
vt 0.575000 0.625000
vt 0.575000 0.700000
vt 0.475000 0.700000
vt 0.546288 0.802643
vt 0.497701 0.802643
vt 0.476694 0.802642
vt 0.476693 0.912137
vt 0.497700 0.912137
vt 0.546288 0.912137
vt 0.567296 0.802643
vt 0.567295 0.912137
vt 0.330001 0.905141
vt 0.330001 0.942571
vt 0.380001 0.942570
vt 0.380001 0.905141
vt 0.330002 0.980000
vt 0.380002 0.980000
vt 0.330000 0.980000
vt 0.330000 0.942570
vt 0.380000 0.942571
vt 0.380000 0.980000
vt 0.330001 0.867711
vt 0.380001 0.867712
vt 0.330002 0.830281
vt 0.380002 0.830282
vt 0.330000 0.830282
vt 0.330000 0.867711
vt 0.380000 0.867711
vt 0.380000 0.830281
vt 0.309437 0.830000
vt 0.265585 0.724133
vt 0.159718 0.680281
vt 0.159718 0.979719
vt 0.053852 0.724133
vt 0.010000 0.830000
vt 0.053852 0.935867
vt 0.265585 0.935867
s 1
usemtl car2_mat
f 1/1/1 2/2/1 3/3/1
f 3/3/1 4/4/1 1/1/1
f 5/5/2 6/6/3 7/7/4
f 8/8/5 9/9/5 10/10/5
f 11/11/6 12/12/6 5/5/6
f 13/13/7 12/14/8 14/15/9
f 15/16/10 16/17/10 8/18/10
f 17/19/11 12/12/11 16/17/11
f 14/15/9 18/20/12 13/13/7
f 10/10/5 19/21/5 8/8/5
f 20/22/13 14/23/13 12/12/13
f 11/11/14 21/24/14 12/12/14
f 22/25/15 23/26/16 15/27/17
f 20/22/18 24/28/18 14/23/18
f 16/29/19 25/30/19 10/31/19
f 25/30/20 16/29/20 3/3/20
f 4/32/21 3/33/21 16/17/21
f 12/14/22 13/13/22 1/1/22
f 17/19/23 16/17/23 26/34/23
f 24/28/24 27/35/24 14/23/24
f 14/36/25 27/37/25 28/38/25
f 16/17/26 12/12/26 4/32/26
f 1/1/27 4/4/27 12/14/27
f 3/3/28 2/2/28 25/30/28
f 10/31/19 9/39/19 16/29/19
f 16/17/29 9/40/29 8/18/29
f 29/41/30 20/22/30 12/12/30
f 28/38/25 18/42/25 14/36/25
f 5/5/2 7/7/4 11/11/31
f 17/19/32 5/5/32 12/12/32
f 21/24/33 29/41/33 12/12/33
f 16/17/34 15/16/34 26/34/34
f 22/25/15 30/43/35 23/26/16
f 31/44/36 32/45/36 33/46/36 24/47/36
f 32/48/37 34/49/37 35/50/37 33/51/37
f 36/52/38 37/53/38 22/54/38 38/55/38
f 30/43/39 22/25/39 37/56/39
f 15/57/40 8/58/40 22/59/40
f 38/59/41 22/60/42 8/61/42 19/58/41
f 27/61/19 24/62/19 33/60/19
f 33/61/19 35/58/19 28/59/19 27/60/19
f 39/63/43 40/64/43 6/65/43 5/66/43
f 41/67/44 42/68/44 21/69/44 11/70/44
f 43/71/45 44/72/45 15/73/45 23/74/45
f 45/75/46 46/76/46 24/77/46 20/78/46
f 47/79/47 48/80/47 17/81/47 26/82/47
f 49/83/47 45/75/47 20/78/47 29/84/47
f 50/85/48 41/67/48 11/70/48 7/86/48
f 48/87/49 39/63/49 5/66/49 17/88/49
f 42/89/50 49/83/50 29/84/50 21/90/50
f 44/91/50 47/79/50 26/82/50 15/92/50
f 51/93/48 43/71/48 23/74/48 30/94/48
f 46/95/51 52/96/51 31/97/51 24/98/51
f 39/99/52 43/100/53 51/101/54 40/102/54
f 50/103/55 52/104/55 46/105/55 41/106/55
f 46/105/56 45/107/56 49/108/56 42/109/56
f 46/105/57 42/109/57 41/106/57
f 48/110/58 47/111/58 44/112/58 39/113/58
f 44/112/59 43/114/53 39/113/52
f 1/1/60 53/3/60 2/2/60
f 53/3/60 1/1/60 54/4/60
f 55/5/61 56/7/62 57/6/63
f 58/8/5 10/10/5 59/9/5
f 60/11/64 55/5/64 61/12/64
f 13/13/65 62/15/66 61/14/8
f 63/16/67 58/18/67 64/17/67
f 65/19/68 64/17/68 61/12/68
f 62/15/66 13/13/65 18/20/69
f 10/10/5 58/8/5 19/21/5
f 66/22/70 61/12/70 62/23/70
f 60/11/71 61/12/71 67/24/71
f 68/25/72 63/27/73 69/26/74
f 66/22/75 62/23/75 70/28/75
f 64/29/19 10/31/19 25/30/19
f 25/30/20 53/3/20 64/29/20
f 54/32/76 64/17/76 53/33/76
f 61/14/22 1/1/22 13/13/22
f 65/19/77 71/34/77 64/17/77
f 70/28/78 62/23/78 72/35/78
f 62/36/79 28/38/79 72/37/79
f 64/17/80 54/32/80 61/12/80
f 1/1/81 61/14/81 54/4/81
f 53/3/82 25/30/82 2/2/82
f 10/31/19 64/29/19 59/39/19
f 64/17/83 58/18/83 59/40/83
f 73/41/84 61/12/84 66/22/84
f 28/38/79 62/36/79 18/42/79
f 55/5/61 60/11/85 56/7/62
f 65/19/86 61/12/86 55/5/86
f 67/24/87 61/12/87 73/41/87
f 64/17/88 71/34/88 63/16/88
f 68/25/72 69/26/74 74/43/89
f 75/44/90 70/47/90 76/46/90 77/45/90
f 77/48/91 76/51/91 35/50/91 34/49/91
f 36/52/92 38/55/92 68/54/92 78/53/92
f 74/43/93 78/56/93 68/25/93
f 63/57/94 68/59/94 58/58/94
f 38/59/41 19/58/41 58/61/95 68/60/95
f 72/61/19 76/60/19 70/62/19
f 76/61/19 72/60/19 28/59/19 35/58/19
f 79/63/43 55/66/43 57/65/43 80/64/43
f 81/67/44 60/70/44 67/69/44 82/68/44
f 83/71/45 69/74/45 63/73/45 84/72/45
f 85/75/46 66/78/46 70/77/46 86/76/46
f 87/79/47 71/82/47 65/81/47 88/80/47
f 89/83/47 73/84/47 66/78/47 85/75/47
f 90/85/48 56/86/48 60/70/48 81/67/48
f 88/87/49 65/88/49 55/66/49 79/63/49
f 82/89/50 67/90/50 73/84/50 89/83/50
f 84/91/50 63/92/50 71/82/50 87/79/50
f 91/93/48 74/94/48 69/74/48 83/71/48
f 86/95/51 70/98/51 75/97/51 92/96/51
f 79/99/96 80/102/97 91/101/97 83/100/98
f 90/103/99 81/106/99 86/105/99 92/104/99
f 89/108/100 85/107/100 86/105/100 82/109/100
f 86/105/101 81/106/101 82/109/101
f 84/112/102 87/111/102 88/110/102 79/113/102
f 84/112/103 79/113/96 83/114/98
f 36/115/104 78/116/105 74/117/105 91/118/106
f 91/118/106 51/119/107 30/120/108 36/115/104
f 36/115/104 30/120/108 37/121/109
f 77/122/110 34/123/110 32/124/110 92/125/110
f 31/126/111 52/127/111 92/125/111 32/124/111
f 77/122/111 92/125/111 75/128/111
f 93/129/112 94/130/112 95/131/112 96/132/112
f 97/132/19 98/129/19 99/130/19 100/131/19
f 93/133/113 96/134/113 98/135/113 97/136/113
f 95/132/114 94/129/114 100/130/114 99/131/114
f 94/132/115 93/129/115 97/130/115 100/131/115
f 101/129/112 102/132/112 103/131/112 104/130/112
f 105/132/19 106/131/19 107/130/19 108/129/19
f 101/133/116 105/136/116 108/135/116 102/134/116
f 103/132/117 107/131/117 106/130/117 104/129/117
f 104/132/118 106/131/118 105/130/118 101/129/118
f 40/137/119 51/119/107 91/118/106 80/138/119
f 80/138/120 57/139/120 56/140/120 90/141/121
f 90/141/121 92/125/122 52/127/122 50/142/121
f 80/138/120 90/141/121 50/142/121 40/137/120
f 6/143/120 40/137/120 50/142/121 7/144/120
f 109/145/123 110/146/123 111/147/123 112/148/123
f 110/146/124 113/149/124 114/150/124 111/147/124
f 113/151/125 115/152/125 116/153/125 114/154/125
f 115/152/126 117/145/126 118/148/126 116/153/126
f 117/145/127 119/155/127 120/156/127 118/148/127
f 119/155/128 121/157/128 122/158/128 120/156/128
f 121/159/129 123/160/129 124/161/129 122/162/129
f 123/160/130 109/145/130 112/148/130 124/161/130
f 121/163/118 119/164/118 117/165/118 109/166/118
f 117/165/118 115/167/118 113/168/118 109/166/118
f 113/168/118 110/169/118 109/166/118
f 123/170/118 121/163/118 109/166/118
f 111/169/115 114/168/115 116/167/115 124/170/115
f 116/167/115 118/165/115 120/164/115 124/170/115
f 120/164/115 122/163/115 124/170/115
f 112/166/115 111/169/115 124/170/115
f 125/145/123 126/146/123 127/147/123 128/148/123
f 126/146/124 129/149/124 130/150/124 127/147/124
f 129/151/125 131/152/125 132/153/125 130/154/125
f 131/152/126 133/145/126 134/148/126 132/153/126
f 133/145/127 135/155/127 136/156/127 134/148/127
f 135/155/128 137/157/128 138/158/128 136/156/128
f 137/159/129 139/160/129 140/161/129 138/162/129
f 139/160/130 125/145/130 128/148/130 140/161/130
f 137/163/118 135/164/118 133/165/118 125/166/118
f 133/165/118 131/167/118 129/168/118 125/166/118
f 129/168/118 126/169/118 125/166/118
f 139/170/118 137/163/118 125/166/118
f 127/169/115 130/168/115 132/167/115 140/170/115
f 132/167/115 134/165/115 136/164/115 140/170/115
f 136/164/115 138/163/115 140/170/115
f 128/166/115 127/169/115 140/170/115
f 141/145/123 142/148/123 143/147/123 144/146/123
f 144/146/124 143/147/124 145/150/124 146/149/124
f 146/151/125 145/154/125 147/153/125 148/152/125
f 148/152/126 147/153/126 149/148/126 150/145/126
f 150/145/127 149/148/127 151/156/127 152/155/127
f 152/155/128 151/156/128 153/158/128 154/157/128
f 154/159/129 153/162/129 155/161/129 156/160/129
f 156/160/130 155/161/130 142/148/130 141/145/130
f 141/166/115 144/169/115 146/168/115 150/165/115
f 146/168/115 148/167/115 150/165/115
f 150/165/115 152/164/115 154/163/115 141/166/115
f 156/170/115 141/166/115 154/163/115
f 155/170/118 153/163/118 151/164/118 147/167/118
f 151/164/118 149/165/118 147/167/118
f 147/167/118 145/168/118 143/169/118 155/170/118
f 142/166/118 155/170/118 143/169/118
f 157/145/123 158/148/123 159/147/123 160/146/123
f 160/146/124 159/147/124 161/150/124 162/149/124
f 162/151/125 161/154/125 163/153/125 164/152/125
f 164/152/126 163/153/126 165/148/126 166/145/126
f 166/145/127 165/148/127 167/156/127 168/155/127
f 168/155/128 167/156/128 169/158/128 170/157/128
f 170/159/129 169/162/129 171/161/129 172/160/129
f 172/160/130 171/161/130 158/148/130 157/145/130
f 157/166/115 160/169/115 162/168/115 166/165/115
f 162/168/115 164/167/115 166/165/115
f 166/165/115 168/164/115 170/163/115 157/166/115
f 172/170/115 157/166/115 170/163/115
f 171/170/118 169/163/118 167/164/118 163/167/118
f 167/164/118 165/165/118 163/167/118
f 163/167/118 161/168/118 159/169/118 171/170/118
f 158/166/118 171/170/118 159/169/118
